<?xml version="1.0" standalone="no"?>
<!DOCTYPE svg PUBLIC "-//W3C//DTD SVG 20010904//EN"
 "http://www.w3.org/TR/2001/REC-SVG-20010904/DTD/svg10.dtd">
<svg version="1.0" xmlns="http://www.w3.org/2000/svg"
 width="1520.000000pt" height="1520.000000pt" viewBox="0 0 1520.000000 1520.000000"
 preserveAspectRatio="xMidYMid meet">

<g transform="translate(0.000000,1520.000000) scale(0.100000,-0.100000)"
fill="#000000" stroke="none">
<path d="M0 7600 l0 -7600 7600 0 7600 0 0 7600 0 7600 -7600 0 -7600 0 0
-7600z m4596 3998 c72 -100 71 -98 42 -97 -22 0 -60 44 -131 151 l-19 28 24 0
c19 0 38 -18 84 -82z m99 0 c73 -98 72 -98 43 -98 -17 1 -38 21 -83 82 -73 98
-72 98 -43 98 17 -1 38 -21 83 -82z m98 2 c61 -85 67 -100 39 -100 -10 0 -41
33 -77 82 -73 100 -72 98 -43 97 17 0 38 -20 81 -79z m-3802 50 c15 -9 19 -22
19 -65 0 -52 -1 -55 -25 -55 -23 0 -25 4 -25 45 0 38 -3 45 -20 45 -18 0 -20
-7 -20 -69 l0 -70 43 -3 42 -3 3 -83 c3 -101 -3 -112 -67 -112 -58 0 -71 12
-71 67 0 39 2 43 25 43 22 0 25 -4 25 -35 0 -28 4 -35 20 -35 18 0 20 7 20 65
l0 65 -29 0 c-58 0 -61 4 -61 101 0 73 3 90 18 98 22 14 78 14 103 1z m191 -7
c16 -14 18 -34 18 -174 0 -181 -3 -189 -75 -189 -72 0 -75 8 -75 190 0 131 3
161 16 174 21 21 92 21 116 -1z m328 -3 c0 -13 -7 -20 -20 -20 -19 0 -20 -7
-20 -170 l0 -170 -25 0 -25 0 0 169 c0 192 6 180 -87 172 l-43 -3 0 -64 0 -64
30 0 c23 0 30 -4 30 -20 0 -16 -7 -20 -30 -20 l-30 0 0 -85 c0 -84 0 -85 -25
-85 l-25 0 0 190 0 190 135 0 c128 0 135 -1 135 -20z m64 3 c2 -10 8 -57 11
-105 13 -158 20 -165 34 -33 15 149 17 155 45 155 23 0 24 -5 36 -131 8 -72
17 -124 20 -117 4 7 10 49 14 93 12 144 15 155 43 155 21 0 24 -3 19 -27 -3
-16 -15 -101 -27 -190 l-22 -163 -27 0 -28 0 -12 130 c-7 71 -16 127 -20 125
-4 -2 -10 -41 -14 -85 -13 -162 -15 -170 -46 -170 l-27 0 -22 168 c-12 92 -24
177 -27 190 -4 18 0 22 20 22 15 0 27 -7 30 -17z m350 -5 c18 -83 66 -334 66
-345 0 -7 -11 -13 -24 -13 -21 0 -25 6 -28 33 -3 28 -7 32 -35 35 -29 3 -32 0
-39 -32 -5 -29 -11 -36 -30 -36 -20 0 -23 4 -19 23 6 26 65 347 65 353 0 2 9
4 20 4 12 0 21 -8 24 -22z m230 6 c22 -22 23 -200 1 -231 -13 -19 -13 -27 5
-77 l19 -56 -28 0 c-25 0 -28 5 -42 57 -21 79 -39 81 -39 4 0 -58 -1 -61 -25
-61 l-25 0 0 190 0 190 59 0 c41 0 65 -5 75 -16z m176 -4 c0 -17 -7 -20 -40
-20 l-40 0 0 -65 0 -65 35 0 c28 0 35 -4 35 -20 0 -16 -7 -20 -35 -20 l-35 0
0 -65 0 -65 40 0 c33 0 40 -3 40 -20 0 -18 -7 -20 -65 -20 l-65 0 0 190 0 190
65 0 c58 0 65 -2 65 -20z m241 10 c18 -10 19 -23 19 -178 0 -117 -4 -172 -12
-180 -7 -7 -39 -12 -75 -12 l-63 0 0 190 0 190 56 0 c30 0 64 -5 75 -10z m189
-10 c0 -17 -7 -20 -40 -20 l-40 0 0 -65 0 -65 35 0 c28 0 35 -4 35 -20 0 -16
-7 -20 -35 -20 l-35 0 0 -65 0 -65 40 0 c33 0 40 -3 40 -20 0 -18 -7 -20 -65
-20 l-65 0 0 190 0 190 65 0 c58 0 65 -2 65 -20z m80 -120 c7 -77 14 -139 16
-137 3 3 34 248 34 270 0 4 12 7 26 7 24 0 26 -3 20 -32 -3 -18 -15 -104 -27
-190 l-22 -158 -28 0 c-34 0 -32 -8 -59 195 -25 189 -25 185 4 185 23 0 23 -3
36 -140z m250 120 c0 -17 -7 -20 -40 -20 l-40 0 0 -65 0 -65 35 0 c28 0 35 -4
35 -20 0 -16 -7 -20 -35 -20 l-35 0 0 -64 0 -65 42 -3 c31 -2 44 -8 46 -20 3
-16 -5 -18 -62 -18 -46 0 -66 4 -67 13 -1 17 -1 184 0 285 l1 82 60 0 c53 0
60 -2 60 -20z m90 -150 l0 -170 35 0 c28 0 35 -4 35 -20 0 -18 -7 -20 -60 -20
l-60 0 0 190 0 190 25 0 25 0 0 -170z m222 153 c16 -14 18 -34 18 -174 0 -181
-3 -189 -75 -189 -72 0 -75 8 -75 190 0 131 3 161 16 174 21 21 92 21 116 -1z
m192 1 c12 -12 16 -38 16 -116 0 -116 -11 -138 -67 -138 l-33 0 0 -55 c0 -52
-1 -55 -25 -55 l-25 0 0 190 0 190 59 0 c41 0 65 -5 75 -16z m109 3 c3 -8 11
-57 18 -110 7 -53 15 -94 18 -91 3 3 13 51 21 107 15 100 16 102 43 105 l27 3
0 -190 c0 -184 -1 -191 -20 -191 -19 0 -20 7 -21 133 -1 112 -3 124 -10 77
-19 -118 -19 -120 -39 -120 -20 0 -21 4 -39 115 -7 41 -9 26 -10 -77 -1 -121
-2 -128 -21 -128 -19 0 -20 7 -20 190 l0 190 24 0 c13 0 26 -6 29 -13z m307
-7 c0 -17 -7 -20 -40 -20 l-40 0 0 -65 0 -65 36 0 c28 0 35 -3 32 -17 -2 -12
-14 -19 -36 -21 l-32 -3 0 -65 0 -64 40 0 c33 0 40 -3 40 -20 0 -18 -7 -20
-65 -20 l-65 0 0 190 0 190 65 0 c58 0 65 -2 65 -20z m106 -100 c11 -63 23
-122 27 -130 3 -8 6 45 6 118 1 125 2 132 21 132 19 0 20 -7 20 -190 l0 -190
-24 0 c-22 0 -25 7 -49 128 l-25 127 -1 -127 -1 -128 -25 0 -25 0 0 191 0 190
28 -3 c26 -3 28 -6 48 -118z m242 103 c-2 -10 -13 -19 -26 -21 -22 -3 -22 -5
-22 -173 l0 -169 -25 0 -25 0 0 170 c0 163 -1 170 -20 170 -13 0 -20 7 -20 20
0 18 7 20 71 20 62 0 70 -2 67 -17z m280 -205 c-13 -18 -44 -59 -67 -90 -32
-42 -50 -58 -67 -58 -22 0 -18 7 42 90 53 72 71 90 91 90 l25 0 -24 -32z m100
0 c-13 -18 -44 -59 -67 -90 -33 -44 -50 -58 -68 -58 l-25 0 24 33 c13 17 44
58 67 90 33 43 50 57 68 57 l25 0 -24 -32z m112 26 c0 -4 -28 -44 -62 -90 -48
-65 -68 -84 -86 -84 -18 0 -22 3 -15 13 6 6 36 47 67 90 37 51 63 77 76 77 11
0 20 -3 20 -6z m639 -661 c21 -5 21 -8 21 -494 l0 -489 -230 0 -230 0 0 270 0
270 -107 0 c-174 0 -317 -31 -452 -97 -88 -44 -221 -167 -264 -247 -40 -72
-73 -171 -87 -259 -18 -108 -8 -328 19 -430 57 -218 207 -379 420 -452 142
-48 218 -55 591 -55 l345 0 -3 -217 c-2 -157 -6 -219 -15 -225 -18 -11 -463
-10 -613 2 -629 51 -1005 295 -1158 752 -47 138 -60 245 -60 473 0 179 3 225
22 313 121 559 513 843 1217 882 165 9 554 11 584 3z m3166 -2 c360 -22 603
-89 808 -224 265 -174 412 -447 448 -833 56 -614 -180 -1053 -670 -1248 -156
-62 -331 -99 -551 -116 -158 -12 -589 -13 -607 -2 -9 6 -13 125 -15 490 -3
413 -1 483 11 487 8 3 113 5 233 4 l218 -1 0 -269 0 -269 108 0 c425 0 699
182 788 525 28 105 25 380 -5 489 -36 134 -85 220 -176 311 -145 144 -344 215
-607 215 l-108 0 0 -270 0 -270 -230 0 -230 0 -1 453 c-2 555 -3 509 16 523
21 15 343 18 570 5z m2510 -216 l0 -220 -22 -1 c-13 -1 -167 -2 -343 -3 l-320
-1 0 -270 0 -270 433 -1 c466 -1 537 -4 549 -22 4 -7 8 -101 8 -209 0 -185 -1
-198 -19 -208 -13 -6 -187 -10 -495 -10 l-476 0 0 -270 0 -270 329 0 c181 0
336 -3 345 -6 14 -5 16 -35 16 -230 l0 -224 -561 0 c-367 0 -567 4 -580 10
-19 10 -19 34 -19 1203 0 656 4 1197 8 1203 4 6 14 14 22 17 8 3 265 5 570 4
l555 -2 0 -220z m-4075 180 c380 -98 659 -362 783 -740 191 -583 -22 -1226
-498 -1498 -177 -102 -362 -147 -601 -147 -322 0 -580 95 -788 290 -179 168
-300 400 -352 675 -26 138 -24 390 4 522 99 461 395 786 814 894 124 31 196
38 373 34 133 -3 178 -8 265 -30z m328 -2797 c6 -29 39 -197 72 -373 34 -176
64 -330 67 -342 5 -21 2 -23 -40 -23 -51 0 -53 2 -63 89 l-7 61 -72 0 -73 0
-6 -47 c-15 -106 -13 -103 -63 -103 -43 0 -44 1 -39 28 3 15 35 187 71 382 36
195 68 361 70 368 2 6 20 12 38 12 33 0 34 -2 45 -52z m452 23 c30 -22 37 -51
39 -153 l1 -78 -50 0 -50 0 0 83 c0 91 -8 107 -51 107 -51 0 -59 -20 -59 -149
0 -79 4 -122 13 -133 8 -11 33 -17 80 -20 53 -3 72 -9 90 -26 21 -21 22 -30
22 -182 0 -153 -1 -160 -23 -182 -20 -21 -32 -23 -122 -23 -90 0 -102 2 -122
23 -20 19 -23 35 -26 112 l-4 90 51 0 50 0 3 -77 3 -78 45 0 45 0 3 136 3 137
-76 4 c-61 3 -79 7 -97 26 -22 21 -23 32 -26 176 -4 169 6 211 51 220 12 3 31
7 42 10 40 10 140 -4 165 -23z m-5857 -1232 c358 -63 615 -310 683 -657 19
-100 19 -168 -2 -176 -9 -3 -121 -6 -249 -6 -263 0 -258 -1 -268 74 -14 97
-82 188 -171 226 -62 26 -103 33 -188 32 -142 -3 -246 -60 -307 -172 -35 -62
-36 -69 -36 -165 0 -89 3 -106 27 -151 58 -110 153 -162 321 -175 142 -11 175
-16 266 -40 305 -81 519 -285 603 -575 20 -69 23 -101 23 -249 0 -158 -2 -176
-27 -255 -38 -116 -93 -212 -174 -299 -149 -161 -366 -263 -591 -278 l-93 -6
0 260 0 260 55 6 c30 3 81 17 113 32 274 125 246 489 -48 605 -36 14 -94 25
-170 31 -351 27 -638 198 -765 455 -59 120 -78 208 -79 374 -1 160 14 235 74
366 160 354 583 558 1003 483z m3717 10 c222 -19 443 -98 569 -202 191 -159
284 -406 268 -712 -10 -190 -60 -333 -161 -462 -75 -95 -223 -202 -334 -241
l-31 -11 78 -173 c43 -95 155 -337 248 -538 239 -515 236 -507 230 -525 -6
-13 -43 -15 -285 -15 -198 0 -281 3 -290 12 -6 6 -129 267 -273 580 l-262 568
-154 0 -153 0 0 -563 c0 -435 -3 -567 -12 -580 -12 -16 -37 -17 -273 -15
l-260 3 -3 842 -2 842 552 4 c470 3 560 6 599 19 111 38 177 90 213 168 17 36
21 64 21 145 0 92 -3 104 -30 153 -33 61 -67 92 -137 128 -98 49 -157 54 -709
54 l-509 0 0 255 c0 231 2 255 18 264 23 13 930 13 1082 0z m1524 0 c4 -3 134
-363 290 -799 l283 -792 27 74 c14 40 100 278 189 528 l163 455 265 2 c145 2
269 -1 276 -5 8 -5 -125 -359 -438 -1166 -247 -638 -453 -1164 -458 -1169 -5
-5 -19 -7 -32 -5 -22 3 -70 123 -567 1413 -298 776 -545 1420 -548 1432 -5 18
-1 25 17 32 26 10 523 10 533 0z m5082 -13 c12 -17 14 -113 14 -583 l0 -563
-280 0 -280 0 0 321 0 322 -147 -6 c-169 -6 -277 -25 -401 -69 -350 -123 -542
-418 -542 -833 0 -498 205 -780 654 -897 75 -20 116 -22 536 -27 l455 -6 3
-243 c1 -156 -1 -250 -8 -262 -10 -19 -23 -20 -363 -20 -382 0 -529 11 -736
56 -455 98 -777 326 -950 672 -170 338 -196 912 -60 1299 129 367 389 616 779
743 283 93 523 119 1073 116 224 -1 240 -2 253 -20z m1492 -243 l2 -263 -410
0 -410 0 0 -325 0 -325 573 0 c432 0 576 -3 585 -12 15 -15 17 -494 2 -503 -5
-3 -257 -6 -560 -5 -302 0 -561 -2 -575 -6 l-25 -6 0 -319 0 -319 378 -2 c207
-1 391 -2 407 -2 l30 -1 3 -268 2 -267 -682 2 -683 3 -3 1433 -2 1433 22 9
c13 5 312 8 683 7 l660 -2 3 -262z m-9648 -3 l0 -260 -410 0 -410 0 2 -327 3
-328 579 -3 c449 -2 582 -5 588 -15 4 -6 8 -116 8 -243 0 -182 -3 -234 -13
-243 -10 -8 -184 -12 -588 -13 l-574 -3 -3 -327 -2 -328 410 0 410 0 0 -265 0
-265 -664 0 c-365 0 -671 3 -680 6 -15 6 -16 141 -16 1433 0 785 3 1431 7
1434 3 4 309 7 680 7 l673 0 0 -260z m5570 -935 l0 -1195 146 0 c81 0 154 -5
165 -10 18 -10 19 -23 19 -233 0 -160 -3 -226 -12 -235 -17 -17 -1169 -17
-1186 0 -9 9 -12 75 -12 235 0 210 1 223 19 233 11 5 86 10 170 10 l151 0 0
1195 0 1195 270 0 270 0 0 -1195z"/>
<path d="M1100 11470 l0 -150 25 0 25 0 0 150 0 150 -25 0 -25 0 0 -150z"/>
<path d="M1898 11535 c-3 -5 -9 -40 -13 -77 l-7 -68 25 0 c24 0 25 2 20 38
-15 99 -19 116 -25 107z"/>
<path d="M2070 11524 c0 -93 1 -95 23 -92 21 3 22 8 25 96 l3 92 -26 0 -25 0
0 -96z"/>
<path d="M2490 11464 l0 -155 23 3 c22 3 22 6 25 156 l3 152 -26 0 -25 0 0
-156z"/>
<path d="M3320 11470 l0 -150 25 0 25 0 0 150 0 150 -25 0 -25 0 0 -150z"/>
<path d="M3510 11525 c0 -95 0 -95 25 -95 25 0 25 0 25 95 0 95 0 95 -25 95
-25 0 -25 0 -25 -95z"/>
<path d="M6665 10370 c-264 -42 -467 -223 -555 -496 -41 -130 -54 -243 -40
-376 39 -397 278 -662 627 -697 389 -40 687 185 779 587 45 193 7 462 -87 631
-97 173 -243 289 -424 336 -76 20 -222 27 -300 15z m186 -572 c87 -30 149
-119 149 -214 0 -93 -43 -162 -124 -200 -156 -73 -315 28 -316 200 0 158 144
265 291 214z"/>
<path d="M7367 7815 c-4 -16 -16 -95 -27 -175 -11 -80 -23 -155 -25 -167 -5
-22 -2 -23 55 -23 47 0 60 3 60 15 0 17 -49 354 -54 370 -2 6 -6 -3 -9 -20z"/>
</g>
</svg>
